<svg width="193" height="52" viewBox="0 0 193 52" fill="none" xmlns="http://www.w3.org/2000/svg">
<g clip-path="url(#clip0_5_64)">
<mask id="mask0_5_64" style="mask-type:luminance" maskUnits="userSpaceOnUse" x="0" y="0" width="193" height="52">
<path d="M193 0H0V52H193V0Z" fill="white"/>
</mask>
<g mask="url(#mask0_5_64)">
<mask id="mask1_5_64" style="mask-type:luminance" maskUnits="userSpaceOnUse" x="-9" y="-13" width="74" height="74">
<path d="M28 -12.7696L-8.76955 24L28 60.7695L64.7696 24L28 -12.7696Z" fill="white"/>
</mask>
<g mask="url(#mask1_5_64)">
<path d="M37.9551 43.9202L36.0433 45.8319C35.8512 46.024 35.614 46.1647 35.3534 46.2414C35.0927 46.3181 34.8171 46.3282 34.5515 46.2709C34.286 46.2135 34.0391 46.0905 33.8334 45.9131C33.6277 45.7356 33.4697 45.5095 33.374 45.2552L27.7874 30.4103L20.682 37.2069L21.2185 42.8135C21.3427 43.9044 21.2278 44.5608 20.2439 45.5447L18.957 46.8316C18.7598 47.0419 18.5148 47.2016 18.2428 47.2971C17.9707 47.3926 17.6797 47.4211 17.3943 47.3803C16.9928 47.3207 16.4341 47.098 16.0406 46.377L12.365 39.8547C12.3378 39.8059 12.3126 39.7549 12.2896 39.7032C12.2868 39.6989 12.2831 39.6953 12.2789 39.6924C12.2267 39.6699 12.1759 39.6445 12.1266 39.6163L5.57058 35.9099C4.86966 35.5178 4.65637 34.967 4.60107 34.5727C4.56386 34.3079 4.58932 34.038 4.67538 33.7848C4.76144 33.5316 4.90571 33.3021 5.0966 33.1148L6.45534 31.7561C7.19002 31.0214 8.23278 30.6379 9.18433 30.7507L14.6868 31.2878L21.5725 24.1953L6.74691 18.6253C6.49266 18.5298 6.26642 18.372 6.08887 18.1665C5.91132 17.9609 5.78812 17.7141 5.73055 17.4487C5.67297 17.1832 5.68285 16.9076 5.75929 16.6469C5.83572 16.3863 5.97627 16.149 6.16808 15.9567L8.10064 14.0241C8.37567 13.7599 8.70668 13.5611 9.06909 13.4423C9.43151 13.3236 9.81601 13.288 10.1941 13.3383L30.0905 15.2737L34.1302 11.0158C34.4174 10.6955 35.2534 9.84804 35.448 9.65342C39.4187 5.68705 43.0769 4.60551 45.2357 6.76428C45.9151 7.44366 46.9033 8.97477 45.8885 11.5924C45.2903 13.1386 44.0996 14.8091 42.3502 16.5585C42.1577 16.751 41.3124 17.5847 40.9878 17.8763L36.7292 21.9138L38.6423 41.8325C38.6915 42.2098 38.6553 42.5932 38.5363 42.9546C38.4173 43.3159 38.2187 43.6459 37.9551 43.9202Z" fill="white"/>
</g>
<path d="M175.15 35.206C174.008 35.206 173.024 34.9811 172.195 34.5312C171.371 34.0767 170.737 33.4304 170.292 32.5923C169.851 31.7495 169.631 30.7481 169.631 29.5881C169.631 28.4612 169.854 27.4763 170.299 26.6335C170.744 25.786 171.371 25.1278 172.181 24.6591C172.99 24.1856 173.944 23.9489 175.043 23.9489C175.819 23.9489 176.53 24.0696 177.174 24.3111C177.818 24.5526 178.374 24.91 178.843 25.3835C179.311 25.857 179.676 26.4418 179.936 27.1378C180.197 27.8291 180.327 28.6222 180.327 29.517V30.3835H170.846V28.3665H177.096C177.091 27.9972 177.003 27.6681 176.833 27.3793C176.662 27.0904 176.428 26.8655 176.13 26.7045C175.836 26.5388 175.498 26.456 175.114 26.456C174.726 26.456 174.378 26.5436 174.07 26.7188C173.762 26.8892 173.518 27.1236 173.338 27.4219C173.159 27.7154 173.064 28.0492 173.054 28.4233V30.4759C173.054 30.9209 173.142 31.3116 173.317 31.6477C173.492 31.9792 173.741 32.2372 174.063 32.4219C174.385 32.6065 174.768 32.6989 175.213 32.6989C175.521 32.6989 175.801 32.6562 176.051 32.571C176.302 32.4858 176.518 32.3603 176.698 32.1946C176.878 32.0289 177.013 31.8253 177.103 31.5838L180.292 31.6761C180.159 32.3911 179.868 33.0137 179.418 33.544C178.973 34.0696 178.388 34.4792 177.664 34.7727C176.939 35.0616 176.101 35.206 175.15 35.206Z" fill="white"/>
<path d="M162.303 39.3182C161.266 39.3182 160.379 39.1738 159.64 38.8849C158.901 38.5961 158.321 38.2008 157.9 37.6989C157.478 37.197 157.225 36.6288 157.14 35.9943L160.428 35.8097C160.49 36.0322 160.603 36.2263 160.769 36.392C160.94 36.5578 161.16 36.6856 161.43 36.7756C161.704 36.8655 162.026 36.9105 162.396 36.9105C162.978 36.9105 163.459 36.7685 163.837 36.4844C164.221 36.205 164.413 35.715 164.413 35.0142V33.0966H164.292C164.155 33.4328 163.946 33.7334 163.667 33.9986C163.388 34.2637 163.04 34.4721 162.623 34.6236C162.211 34.7751 161.737 34.8509 161.202 34.8509C160.407 34.8509 159.678 34.6662 159.015 34.2969C158.357 33.9228 157.829 33.3452 157.431 32.5639C157.038 31.7779 156.842 30.767 156.842 29.5312C156.842 28.2576 157.045 27.2088 157.452 26.3849C157.86 25.5563 158.392 24.9432 159.05 24.5455C159.713 24.1477 160.426 23.9489 161.188 23.9489C161.761 23.9489 162.251 24.0483 162.658 24.2472C163.07 24.4413 163.409 24.6922 163.674 25C163.939 25.3078 164.14 25.6274 164.278 25.9588H164.377V24.0909H167.836V35.0426C167.836 35.9659 167.604 36.7448 167.14 37.3793C166.676 38.0137 166.027 38.4943 165.194 38.821C164.361 39.1525 163.397 39.3182 162.303 39.3182ZM162.41 32.3224C162.831 32.3224 163.191 32.2112 163.489 31.9886C163.788 31.7661 164.017 31.4465 164.178 31.0298C164.339 30.6132 164.42 30.1136 164.42 29.5312C164.42 28.9394 164.339 28.4304 164.178 28.0043C164.022 27.5734 163.792 27.242 163.489 27.0099C163.191 26.7779 162.831 26.6619 162.41 26.6619C161.979 26.6619 161.614 26.7803 161.316 27.017C161.018 27.2538 160.79 27.5876 160.634 28.0185C160.483 28.4446 160.407 28.9489 160.407 29.5312C160.407 30.1136 160.485 30.6132 160.641 31.0298C160.798 31.4465 161.022 31.7661 161.316 31.9886C161.614 32.2112 161.979 32.3224 162.41 32.3224Z" fill="white"/>
<path d="M148.575 35.1847C147.879 35.1847 147.261 35.0687 146.721 34.8366C146.186 34.5999 145.762 34.2448 145.45 33.7713C145.142 33.2931 144.988 32.6941 144.988 31.9744C144.988 31.3684 145.094 30.857 145.308 30.4403C145.521 30.0237 145.814 29.6851 146.188 29.4247C146.562 29.1643 146.993 28.9678 147.481 28.8352C147.969 28.6979 148.489 28.6056 149.043 28.5582C149.664 28.5014 150.163 28.4422 150.542 28.3807C150.921 28.3144 151.195 28.2221 151.366 28.1037C151.541 27.9806 151.629 27.8078 151.629 27.5852V27.5497C151.629 27.1851 151.503 26.9034 151.252 26.7045C151.001 26.5057 150.663 26.4062 150.236 26.4062C149.777 26.4062 149.408 26.5057 149.129 26.7045C148.849 26.9034 148.672 27.178 148.596 27.5284L145.393 27.4148C145.487 26.7519 145.731 26.16 146.124 25.6392C146.522 25.1136 147.067 24.7017 147.758 24.4034C148.454 24.1004 149.29 23.9489 150.265 23.9489C150.961 23.9489 151.603 24.0317 152.19 24.1974C152.777 24.3584 153.288 24.5952 153.724 24.9077C154.159 25.2154 154.495 25.5942 154.732 26.044C154.974 26.4938 155.094 27.0076 155.094 27.5852V35H151.827V33.4801H151.742C151.548 33.8494 151.299 34.1619 150.996 34.4176C150.698 34.6733 150.345 34.8651 149.938 34.9929C149.536 35.1207 149.081 35.1847 148.575 35.1847ZM149.647 32.9119C150.021 32.9119 150.357 32.8362 150.656 32.6847C150.959 32.5331 151.2 32.3248 151.38 32.0597C151.56 31.7898 151.65 31.4773 151.65 31.1222V30.0852C151.55 30.1373 151.43 30.1847 151.288 30.2273C151.15 30.2699 150.999 30.3101 150.833 30.348C150.667 30.3859 150.497 30.419 150.322 30.4474C150.147 30.4759 149.978 30.5019 149.817 30.5256C149.491 30.5777 149.211 30.6581 148.979 30.767C148.752 30.8759 148.577 31.018 148.454 31.1932C148.335 31.3636 148.276 31.5672 148.276 31.804C148.276 32.1638 148.404 32.4384 148.66 32.6278C148.92 32.8172 149.249 32.9119 149.647 32.9119Z" fill="white"/>
<path d="M136.002 39.0909C135.585 39.0909 135.192 39.0578 134.823 38.9915C134.453 38.9299 134.136 38.8471 133.871 38.7429L134.638 36.2216C134.979 36.3352 135.287 36.4015 135.561 36.4205C135.841 36.4394 136.08 36.3944 136.279 36.2855C136.482 36.1813 136.639 35.9943 136.748 35.7244L136.882 35.3977L133.005 24.0909H136.641L138.651 31.875H138.765L140.803 24.0909H144.461L140.348 36.044C140.149 36.6406 139.868 37.1662 139.503 37.6207C139.143 38.08 138.677 38.4399 138.104 38.7003C137.536 38.9607 136.835 39.0909 136.002 39.0909Z" fill="white"/>
<path d="M126.939 35.206C125.793 35.206 124.809 34.9716 123.985 34.5028C123.166 34.0294 122.534 33.3712 122.088 32.5284C121.648 31.6809 121.428 30.6984 121.428 29.581C121.428 28.4588 121.648 27.4763 122.088 26.6335C122.534 25.786 123.166 25.1278 123.985 24.6591C124.809 24.1856 125.793 23.9489 126.939 23.9489C128.085 23.9489 129.068 24.1856 129.887 24.6591C130.711 25.1278 131.343 25.786 131.783 26.6335C132.228 27.4763 132.451 28.4588 132.451 29.581C132.451 30.6984 132.228 31.6809 131.783 32.5284C131.343 33.3712 130.711 34.0294 129.887 34.5028C129.068 34.9716 128.085 35.206 126.939 35.206ZM126.961 32.5852C127.377 32.5852 127.73 32.4574 128.019 32.2017C128.308 31.946 128.528 31.5909 128.679 31.1364C128.836 30.6818 128.914 30.1563 128.914 29.5597C128.914 28.9536 128.836 28.4233 128.679 27.9688C128.528 27.5142 128.308 27.1591 128.019 26.9034C127.73 26.6477 127.377 26.5199 126.961 26.5199C126.53 26.5199 126.165 26.6477 125.867 26.9034C125.573 27.1591 125.348 27.5142 125.192 27.9688C125.041 28.4233 124.965 28.9536 124.965 29.5597C124.965 30.1563 125.041 30.6818 125.192 31.1364C125.348 31.5909 125.573 31.946 125.867 32.2017C126.165 32.4574 126.53 32.5852 126.961 32.5852Z" fill="white"/>
<path d="M111.028 20.4545L114.281 31.108H114.402L117.655 20.4545H121.589L116.682 35H112.001L107.094 20.4545H111.028Z" fill="white"/>
<path d="M92.5181 35L89.6772 24.0909H93.1644L94.6346 31.0795H94.7269L96.3036 24.0909H99.7056L101.325 31.0298H101.417L102.845 24.0909H106.332L103.484 35H99.7695L98.065 28.6435H97.9442L96.2397 35H92.5181Z" fill="white"/>
<path d="M83.4236 35.206C82.2778 35.206 81.293 34.9716 80.4691 34.5028C79.65 34.0294 79.0179 33.3712 78.5728 32.5284C78.1325 31.6809 77.9123 30.6984 77.9123 29.581C77.9123 28.4588 78.1325 27.4763 78.5728 26.6335C79.0179 25.786 79.65 25.1278 80.4691 24.6591C81.293 24.1856 82.2778 23.9489 83.4236 23.9489C84.5695 23.9489 85.552 24.1856 86.3711 24.6591C87.195 25.1278 87.8271 25.786 88.2674 26.6335C88.7125 27.4763 88.935 28.4588 88.935 29.581C88.935 30.6984 88.7125 31.6809 88.2674 32.5284C87.8271 33.3712 87.195 34.0294 86.3711 34.5028C85.552 34.9716 84.5695 35.206 83.4236 35.206ZM83.445 32.5852C83.8616 32.5852 84.2144 32.4574 84.5032 32.2017C84.792 31.946 85.0122 31.5909 85.1637 31.1364C85.32 30.6818 85.3981 30.1563 85.3981 29.5597C85.3981 28.9536 85.32 28.4233 85.1637 27.9688C85.0122 27.5142 84.792 27.1591 84.5032 26.9034C84.2144 26.6477 83.8616 26.5199 83.445 26.5199C83.0141 26.5199 82.6495 26.6477 82.3512 26.9034C82.0576 27.1591 81.8327 27.5142 81.6765 27.9688C81.525 28.4233 81.4492 28.9536 81.4492 29.5597C81.4492 30.1563 81.525 30.6818 81.6765 31.1364C81.8327 31.5909 82.0576 31.946 82.3512 32.2017C82.6495 32.4574 83.0141 32.5852 83.445 32.5852Z" fill="white"/>
<path d="M76.1207 20.4545V35H73.1378L67.3494 26.6051H67.2571V35H63.7415V20.4545H66.767L72.4915 28.8352H72.6122V20.4545H76.1207Z" fill="white"/>
</g>
</g>
<defs>
<clipPath id="clip0_5_64">
<rect width="193" height="52" fill="white"/>
</clipPath>
</defs>
</svg>
